#!OML:ASF H:\Terrain\Patient Classification 1\Walking\steve\steve.ASF
:FULLY-SPECIFIED
:DEGREES
361
root 9.66884 16.627 29.3272 6.98906 -1.96519 2.12705
lowerback -1.52493 1.23537 -5.35619
upperback 0.213499 1.75299 -0.535876
thorax 0.931542 0.848155 2.48773
lowerneck -11.0068 -1.67968 -2.22879
upperneck 15.7012 -2.47047 3.36675
head 6.66589 -1.04015 1.22637
rclavicle 3.30107e-014 7.95139e-016
rhumerus -49.4515 -6.71077 -81.1758
rradius 29.6428
rwrist 2.34066
rhand -14.2847 -29.3185
rfingers 7.12502
rthumb 11.8546 -58.963
lclavicle 3.30107e-014 7.95139e-016
lhumerus -5.45833 -13.1695 81.3387
lradius 42.1607
lwrist 18.8235
lhand -26.0146 -18.8919
lfingers 7.12502
lthumb 0.531682 11.0872
rfemur -40.4131 3.1525 20.3123
rtibia 42.4621
rfoot -21.3747 1.8464
rtoes -14.1256
lfemur -6.9427 0.0921859 -27.0134
ltibia 25.2575
lfoot -20.7584 -9.54782
ltoes 3.13678
362
root 9.66311 16.6281 29.4797 6.96954 -1.63683 2.40179
lowerback 0.932665 1.164 -5.6251
upperback -1.71457 1.42428 -0.557715
thorax -2.4156 0.807423 2.53187
lowerneck -8.82542 -1.46743 -2.30965
upperneck 16.2224 -2.25123 3.56957
head 6.44702 -0.941629 1.33772
rclavicle 1.16227e-014 -6.4605e-015
rhumerus -52.7982 -7.10544 -80.0742
rradius 30.2977
rwrist 0.990103
rhand -12.0014 -33.5472
rfingers 7.12502
rthumb 14.0556 -63.0519
lclavicle 1.16227e-014 -6.4605e-015
lhumerus -8.22572 -13.833 82.1547
lradius 43.0323
lwrist 18.858
lhand -25.9806 -18.8845
lfingers 7.12502
lthumb 0.564448 11.0945
rfemur -41.1826 2.99939 19.9854
rtibia 41.1075
rfoot -20.7081 1.89989
rtoes -12.9684
lfemur -5.78817 -0.0263216 -27.2275
ltibia 24.1619
lfoot -20.6319 -9.86429
ltoes 2.58349
363
root 9.65839 16.619 29.6308 6.99886 -1.29314 2.77189
lowerback 0.618596 1.07943 -5.80334
upperback -1.49395 1.33621 -0.669182
thorax -2.00497 0.750482 2.52889
lowerneck -9.33636 -1.88117 -2.73364
upperneck 16.6084 -2.78014 3.72941
head 6.68469 -1.20177 1.41218
rclavicle 1.74496e-014 -1.41137e-014
rhumerus -52.7443 -7.94527 -79.596
rradius 30.3699
rwrist 0.8372
rhand -11.4047 -35.4219
rfingers 7.12502
rthumb 14.6306 -64.8858
lclavicle 1.74496e-014 -1.41137e-014
lhumerus -7.25847 -14.6357 82.1621
lradius 43.493
lwrist 19.0727
lhand -26.1157 -18.7837
lfingers 7.12502
lthumb 0.43401 11.1956
rfemur -42.0597 2.85697 19.5345
rtibia 39.7785
rfoot -19.7643 1.61885
rtoes -10.0943
lfemur -4.63074 -0.0271551 -27.5448
ltibia 22.9655
lfoot -20.1417 -10.2612
ltoes 3.72328
364
root 9.65627 16.6047 29.7892 7.01544 -0.903787 3.05205
lowerback -0.0998178 0.834472 -6.08706
upperback -1.08364 1.07585 -0.595772
thorax -1.16208 0.593305 2.78648
lowerneck -9.32861 -1.39002 -1.71173
upperneck 16.1789 -2.0925 2.75454
head 6.50198 -0.889902 0.98851
rclavicle -9.50439e-015 2.28602e-015
rhumerus -52.386 -7.99351 -79.6138
rradius 29.835
rwrist 2.11456
rhand -12.4243 -35.6275
rfingers 7.12502
rthumb 13.6481 -65.1601
lclavicle -9.50439e-015 2.28602e-015
lhumerus -6.19739 -15.0704 82.0832
lradius 44.0207
lwrist 19.4818
lhand -26.2151 -18.308
lfingers 7.12502
lthumb 0.33799 11.6714
rfemur -42.832 2.60001 19.212
rtibia 38.4552
rfoot -18.9702 1.26258
rtoes -11.7969
lfemur -3.34945 0.09543 -27.7378
ltibia 21.6569
lfoot -19.4272 -10.9805
ltoes 5.92699
365
root 9.65158 16.5879 29.9625 6.80424 -0.595987 3.1725
lowerback -0.362667 0.704646 -6.05791
upperback -0.879636 0.93035 -0.621065
thorax -0.789337 0.505497 2.75154
lowerneck -9.69549 -1.84392 -2.56349
upperneck 16.3802 -2.7074 3.52326
head 6.66726 -1.17088 1.32094
rclavicle 4.90128e-015 -1.45113e-014
rhumerus -52.5805 -8.1249 -79.9054
rradius 29.0147
rwrist 4.62718
rhand -14.9096 -35.1916
rfingers 7.12502
rthumb 11.2519 -64.8698
lclavicle 4.90128e-015 -1.45113e-014
lhumerus -5.52753 -15.7962 81.9394
lradius 44.4744
lwrist 19.9832
lhand -25.7993 -17.9614
lfingers 7.12502
lthumb 0.739572 12.0171
rfemur -43.2161 2.34093 19.13
rtibia 37.1289
rfoot -18.4081 1.32388
rtoes -14.5435
lfemur -1.74583 0.518925 -27.7155
ltibia 20.3383
lfoot -18.9779 -11.7718
ltoes 6.29766
366
root 9.64486 16.568 30.1411 6.55787 -0.370761 3.16453
lowerback -0.360356 0.658805 -5.94586
upperback -0.829291 0.871368 -0.594873
thorax -0.731764 0.472738 2.71666
lowerneck -9.69589 -1.65217 -2.22854
upperneck 16.5551 -2.48548 3.40699
head 6.71046 -1.05172 1.24787
rclavicle 2.53947e-014 -2.05245e-014
rhumerus -52.9088 -9.13486 -78.968
rradius 29.283
rwrist 3.50713
rhand -13.1107 -35.0191
rfingers 7.12502
rthumb 12.9865 -64.5949
lclavicle 2.53947e-014 -2.05245e-014
lhumerus -5.19455 -16.2767 82.024
lradius 44.9226
lwrist 19.956
lhand -25.6327 -18.2026
lfingers 7.12502
lthumb 0.900525 11.7752
rfemur -43.4923 2.29149 19.1028
rtibia 35.8055
rfoot -17.482 1.42892
rtoes -14.3467
lfemur -0.0672515 1.03116 -27.5247
ltibia 19.0281
lfoot -18.7429 -12.3811
ltoes 4.70312
367
root 9.64679 16.5514 30.3163 6.37374 -0.0806606 3.16539
lowerback -0.23428 0.568101 -5.74979
upperback -0.883205 0.740068 -0.555002
thorax -0.843819 0.410108 2.64702
lowerneck -9.33777 -1.94604 -2.68567
upperneck 16.3208 -2.84722 3.608
head 6.59305 -1.24305 1.35887
rclavicle -7.07239e-015 -7.65321e-015
rhumerus -53.3778 -9.51947 -78.4683
rradius 29.2521
rwrist 3.28221
rhand -12.3185 -34.8911
rfingers 7.12502
rthumb 13.7501 -64.4168
lclavicle -7.07239e-015 -7.65321e-015
lhumerus -5.2052 -16.4424 82.3044
lradius 45.5222
lwrist 19.5457
lhand -26.1894 -18.6481
lfingers 7.12502
lthumb 0.362841 11.3313
rfemur -43.7997 1.95126 19.1233
rtibia 34.5091
rfoot -16.4065 1.4885
rtoes -14.1066
lfemur 1.57482 1.31473 -27.3857
ltibia 17.7169
lfoot -18.5575 -12.7789
ltoes 3.69012
368
root 9.65194 16.5399 30.4902 6.17633 0.338911 3.34046
lowerback -0.832161 0.40042 -5.57244
upperback -0.370632 0.576656 -0.633216
thorax 0.0370374 0.294301 2.47653
lowerneck -9.70983 -1.71323 -2.14643
upperneck 16.0656 -2.56318 3.37694
head 6.55743 -1.08994 1.2169
rclavicle -1.15978e-014 3.62782e-015
rhumerus -53.0164 -9.96067 -78.4216
rradius 29.0672
rwrist 3.49848
rhand -12.3024 -34.7278
rfingers 7.12502
rthumb 13.7656 -64.2524
lclavicle -1.15978e-014 3.62782e-015
lhumerus -4.25304 -16.7945 82.177
lradius 46.0249
lwrist 19.418
lhand -25.9874 -18.5974
lfingers 7.12502
lthumb 0.557962 11.3816
rfemur -44.0526 1.21158 19.099
rtibia 33.2823
rfoot -16.0739 1.84621
rtoes -14.123
lfemur 3.21463 1.47694 -27.4255
ltibia 16.3321
lfoot -18.2548 -13.1553
ltoes 3.20794
369
root 9.64696 16.5228 30.6606 5.99701 0.80412 3.50215
lowerback -0.823201 0.226585 -5.64413
upperback -0.347961 0.34582 -0.590064
thorax 0.0740204 0.177709 2.55948
lowerneck -9.16224 -1.80363 -2.41748
upperneck 15.7 -2.64675 3.41141
head 6.35188 -1.15173 1.26906
rclavicle -7.2968e-015 -2.73329e-015
rhumerus -53.4491 -10.1928 -78.2287
rradius 28.9037
rwrist 4.37161
rhand -11.1598 -34.8924
rfingers 7.12502
rthumb 14.8666 -64.3391
lclavicle -7.2968e-015 -2.73329e-015
lhumerus -4.15278 -17.1865 82.3736
lradius 46.5342
lwrist 19.3247
lhand -25.6098 -18.6031
lfingers 7.12502
lthumb 0.922659 11.3747
rfemur -44.3429 1.07028 18.8008
rtibia 32.2194
rfoot -16.5476 1.90865
rtoes -12.8828
lfemur 4.86266 1.77115 -27.3517
ltibia 14.7008
lfoot -17.5416 -13.6957
ltoes 3.43151
370
root 9.63831 16.5017 30.836 5.96782 1.20669 3.68705
lowerback -1.80609 0.0944307 -5.72597
upperback 0.255089 0.262118 -0.585014
thorax 1.25394 0.0924513 2.61507
lowerneck -9.57792 -1.80066 -2.34646
upperneck 15.5286 -2.62233 3.29608
head 6.36676 -1.14162 1.21935
rclavicle -1.19038e-014 1.26415e-014
rhumerus -52.8759 -10.7106 -78.1973
rradius 28.5885
rwrist 5.04074
rhand -10.0705 -35.0907
rfingers 7.12502
rthumb 15.9157 -64.4567
lclavicle -1.19038e-014 1.26415e-014
lhumerus -3.01602 -17.6798 82.285
lradius 46.907
lwrist 19.3513
lhand -25.5523 -18.6583
lfingers 7.12502
lthumb 0.978193 11.3192
rfemur -44.8732 1.14984 18.3493
rtibia 31.3946
rfoot -17.3356 1.91857
rtoes -12.2765
lfemur 6.55971 2.14757 -27.302
ltibia 12.7228
lfoot -16.5973 -14.1297
ltoes 3.4596
371
root 9.63528 16.4806 31.0142 6.17115 1.58108 4.1419
lowerback -1.43397 0.0301892 -5.84683
upperback -0.399902 0.128401 -0.780612
thorax 0.381925 0.0619955 2.47613
lowerneck -8.93785 -2.03673 -2.5189
upperneck 15.8152 -2.93988 3.31399
head 6.35867 -1.30854 1.23237
rclavicle 4.3356e-015 -1.26601e-014
rhumerus -54.3458 -10.8607 -77.8873
rradius 28.9451
rwrist 4.12334
rhand -11.5126 -34.998
rfingers 7.12502
rthumb 14.5266 -64.4694
lclavicle 4.3356e-015 -1.26601e-014
lhumerus -3.93181 -18.716 82.5569
lradius 47.5345
lwrist 19.4549
lhand -25.44 -18.4383
lfingers 7.12502
lthumb 1.08658 11.5387
rfemur -45.7111 0.787101 17.7919
rtibia 30.7919
rfoot -17.7205 2.03034
rtoes -12.8062
lfemur 8.26182 2.37585 -27.6282
ltibia 10.3129
lfoot -15.4365 -14.2868
ltoes 3.58355
372
root 9.63393 16.4521 31.1835 6.34793 2.00686 4.65608
lowerback -2.2826 -0.224175 -6.13499
upperback 0.0335552 -0.121832 -0.90486
thorax 1.32726 -0.098305 2.50269
lowerneck -9.67168 -2.10353 -2.50095
upperneck 15.9058 -3.01144 3.24607
head 6.51658 -1.33948 1.19508
rclavicle 1.58562e-015 1.594e-014
rhumerus -53.8941 -11.3767 -77.7133
rradius 29.0135
rwrist 3.77587
rhand -13.0763 -34.4834
rfingers 7.12502
rthumb 13.0196 -64.0571
lclavicle 1.58562e-015 1.594e-014
lhumerus -2.92858 -19.1801 82.1785
lradius 47.8278
lwrist 19.7628
lhand -25.5472 -18.6787
lfingers 7.12502
lthumb 0.98312 11.2988
rfemur -46.4918 0.242482 17.2725
rtibia 30.3362
rfoot -17.6206 2.15145
rtoes -12.3721
lfemur 10.3692 1.88453 -28.1294
ltibia 7.13093
lfoot -14.1465 -13.7129
ltoes 4.2542
373
root 9.62865 16.4131 31.3543 6.18298 2.43892 5.03773
lowerback -3.58029 -0.519992 -6.588
upperback 1.13713 -0.350056 -0.801251
thorax 3.22628 -0.297378 2.84298
lowerneck -10.7126 -2.07168 -2.4668
upperneck 15.6024 -2.90487 3.01032
head 6.59427 -1.29675 1.11411
rclavicle -2.01891e-014 2.37051e-014
rhumerus -52.4036 -11.821 -77.6054
rradius 28.7119
rwrist 4.11383
rhand -13.2834 -34.1952
rfingers 7.12502
rthumb 12.82 -63.7816
lclavicle -2.01891e-014 2.37051e-014
lhumerus -0.966728 -19.1278 81.7898
lradius 47.9018
lwrist 20.0487
lhand -25.5657 -19.1354
lfingers 7.12502
lthumb 0.96522 10.8421
rfemur -46.8753 -0.0344819 16.7691
rtibia 29.9909
rfoot -17.6267 2.35235
rtoes -12.3423
lfemur 14.9128 1.45926 -28.5205
ltibia -2.54444e-014
lfoot -11.129 -12.3539
ltoes 4.52071
374
root 9.62103 16.3771 31.5287 5.78251 2.98227 5.19746
lowerback -0.996316 -0.391661 -6.35491
upperback -0.446832 -0.461902 -0.918786
thorax 0.141244 -0.224894 2.61011
lowerneck -9.82757 -2.0902 -1.5444
upperneck 17.2576 -2.93122 1.82208
head 6.93934 -1.3514 0.583865
rclavicle -4.87022e-015 1.13307e-014
rhumerus -55.6655 -11.723 -76.9328
rradius 28.791
rwrist 4.62816
rhand -12.5466 -33.9366
rfingers 7.12502
rthumb 13.5302 -63.477
lclavicle -4.87022e-015 1.13307e-014
lhumerus -3.66377 -20.3737 82.8304
lradius 48.3215
lwrist 19.5997
lhand -25.3985 -19.8299
lfingers 7.12502
lthumb 1.12668 10.1469
rfemur -46.8981 0.277373 16.0981
rtibia 29.663
rfoot -17.896 1.81755
rtoes -13.1593
lfemur 16.0685 0.964283 -28.5872
ltibia -2.8625e-014
lfoot -11.4084 -12.3572
ltoes 5.01313
